{
  "accessors": [
    {
      "bufferView": 2,
      "componentType": 5126,
      "count": 65532,
      "max": [
        98.295761108398438,
        -352.94277954101562,
        103.68467712402344
      ],
      "min": [
        -97.728256225585938,
        -368.5384521484375,
        -99.903068542480469
      ],
      "type": "VEC3"
    },
    {
      "bufferView": 2,
      "byteOffset": 786384,
      "componentType": 5126,
      "count": 65532,
      "max": [
        0.9999920129776001,
        0.73200464248657227,
        0.99916297197341919
      ],
      "min": [
        -0.99973535537719727,
        -1,
        -0.99980378150939941
      ],
      "type": "VEC3"
    },
    {
      "bufferView": 1,
      "componentType": 5126,
      "count": 65532,
      "max": [
        0.99144697189331055,
        0.99194097518920898
      ],
      "min": [
        0.0080989999696612358,
        0.45686399936676025
      ],
      "type": "VEC2"
    },
    {
      "bufferView": 0,
      "componentType": 5125,
      "count": 367770,
      "max": [
        65531
      ],
      "min": [
        0
      ],
      "type": "SCALAR"
    },
    {
      "bufferView": 2,
      "byteOffset": 1572768,
      "componentType": 5126,
      "count": 65532,
      "max": [
        80.380355834960938,
        -354.98159790039062,
        76.319465637207031
      ],
      "min": [
        -86.867340087890625,
        -365.01913452148438,
        -93.4615478515625
      ],
      "type": "VEC3"
    },
    {
      "bufferView": 2,
      "byteOffset": 2359152,
      "componentType": 5126,
      "count": 65532,
      "max": [
        0.99177652597427368,
        0.69719582796096802,
        0.99777674674987793
      ],
      "min": [
        -0.99840545654296875,
        -1,
        -0.99371945858001709
      ],
      "type": "VEC3"
    },
    {
      "bufferView": 1,
      "byteOffset": 524256,
      "componentType": 5126,
      "count": 65532,
      "max": [
        0.97169202566146851,
        0.7882230281829834
      ],
      "min": [
        0.0081529999151825905,
        0.15992400050163269
      ],
      "type": "VEC2"
    },
    {
      "bufferView": 0,
      "byteOffset": 1471080,
      "componentType": 5125,
      "count": 362496,
      "max": [
        65531
      ],
      "min": [
        0
      ],
      "type": "SCALAR"
    },
    {
      "bufferView": 2,
      "byteOffset": 3145536,
      "componentType": 5126,
      "count": 48173,
      "max": [
        93.910964965820312,
        -352.99032592773438,
        94.62591552734375
      ],
      "min": [
        -86.126663208007812,
        -368.22158813476562,
        -98.947830200195312
      ],
      "type": "VEC3"
    },
    {
      "bufferView": 2,
      "byteOffset": 3723612,
      "componentType": 5126,
      "count": 48173,
      "max": [
        0.99971663951873779,
        0.87383627891540527,
        0.99999189376831055
      ],
      "min": [
        -0.99914950132369995,
        -1,
        -0.99979948997497559
      ],
      "type": "VEC3"
    },
    {
      "bufferView": 1,
      "byteOffset": 1048512,
      "componentType": 5126,
      "count": 48173,
      "max": [
        0.99169397354125977,
        0.99187701940536499
      ],
      "min": [
        0.0081110000610351562,
        0.0083250002935528755
      ],
      "type": "VEC2"
    },
    {
      "bufferView": 0,
      "byteOffset": 2921064,
      "componentType": 5125,
      "count": 255516,
      "max": [
        48172
      ],
      "min": [
        0
      ],
      "type": "SCALAR"
    },
    {
      "bufferView": 2,
      "byteOffset": 4301688,
      "componentType": 5126,
      "count": 29634,
      "max": [
        99.48077392578125,
        -352.97723388671875,
        103.78044128417969
      ],
      "min": [
        -97.687057495117188,
        -368.51699829101562,
        -99.903068542480469
      ],
      "type": "VEC3"
    },
    {
      "bufferView": 2,
      "byteOffset": 4657296,
      "componentType": 5126,
      "count": 29634,
      "max": [
        0.99964648485183716,
        0.95360010862350464,
        0.99941921234130859
      ],
      "min": [
        -0.99973535537719727,
        -0.99999988079071045,
        -0.999805748462677
      ],
      "type": "VEC3"
    },
    {
      "bufferView": 1,
      "byteOffset": 1433896,
      "componentType": 5126,
      "count": 29634,
      "max": [
        0.99121099710464478,
        0.99165302515029907
      ],
      "min": [
        0.0083010001108050346,
        0.0088050002232193947
      ],
      "type": "VEC2"
    },
    {
      "bufferView": 0,
      "byteOffset": 3943128,
      "componentType": 5125,
      "count": 129849,
      "max": [
        29633
      ],
      "min": [
        0
      ],
      "type": "SCALAR"
    },
    {
      "bufferView": 2,
      "byteOffset": 5012904,
      "componentType": 5126,
      "count": 769,
      "max": [
        98.295761108398438,
        -354.91397094726562,
        102.04736328125
      ],
      "min": [
        -92.246421813964844,
        -367.95556640625,
        -99.632682800292969
      ],
      "type": "VEC3"
    },
    {
      "bufferView": 2,
      "byteOffset": 5022132,
      "componentType": 5126,
      "count": 769,
      "max": [
        0.99729049205780029,
        0.89976310729980469,
        0.98334038257598877
      ],
      "min": [
        -0.98625999689102173,
        -0.99875748157501221,
        -0.98885273933410645
      ],
      "type": "VEC3"
    },
    {
      "bufferView": 1,
      "byteOffset": 1670968,
      "componentType": 5126,
      "count": 769,
      "max": [
        0.984375,
        0.9882659912109375
      ],
      "min": [
        0.011731999926269054,
        0.57068699598312378
      ],
      "type": "VEC2"
    },
    {
      "bufferView": 0,
      "byteOffset": 4462524,
      "componentType": 5125,
      "count": 852,
      "max": [
        768
      ],
      "min": [
        0
      ],
      "type": "SCALAR"
    }
  ],
  "asset": {
    "extras": {
      "author": "BeyondAerial (https://sketchfab.com/BeyondAerial)",
      "license": "CC-BY-4.0 (http://creativecommons.org/licenses/by/4.0/)",
      "source": "https://sketchfab.com/3d-models/south-campus-gym-webodm-905517de263b47aaaba742bde6ed3624",
      "title": "South Campus Gym - WebODM"
    },
    "generator": "Sketchfab-9.26.0",
    "version": "2.0"
  },
  "bufferViews": [
    {
      "buffer": 0,
      "byteLength": 4465932,
      "byteOffset": 0,
      "name": "floatBufferViews",
      "target": 34963
    },
    {
      "buffer": 0,
      "byteLength": 1677120,
      "byteOffset": 4465932,
      "byteStride": 8,
      "name": "floatBufferViews",
      "target": 34962
    },
    {
      "buffer": 0,
      "byteLength": 5031360,
      "byteOffset": 6143052,
      "byteStride": 12,
      "name": "floatBufferViews",
      "target": 34962
    }
  ],
  "buffers": [
    {
      "byteLength": 11174412,
      "uri": "scene.bin"
    }
  ],
  "images": [
    {
      "uri": "textures/material0000_baseColor.png"
    },
    {
      "uri": "textures/material0001_baseColor.png"
    },
    {
      "uri": "textures/material0002_baseColor.png"
    }
  ],
  "materials": [
    {
      "doubleSided": true,
      "emissiveFactor": [
        0,
        0,
        0
      ],
      "name": "material0000",
      "pbrMetallicRoughness": {
        "baseColorFactor": [
          1,
          1,
          1,
          1
        ],
        "baseColorTexture": {
          "index": 0,
          "texCoord": 0
        },
        "metallicFactor": 0,
        "roughnessFactor": 1
      }
    },
    {
      "doubleSided": true,
      "emissiveFactor": [
        0,
        0,
        0
      ],
      "name": "material0001",
      "pbrMetallicRoughness": {
        "baseColorFactor": [
          1,
          1,
          1,
          1
        ],
        "baseColorTexture": {
          "index": 1,
          "texCoord": 0
        },
        "metallicFactor": 0,
        "roughnessFactor": 1
      }
    },
    {
      "doubleSided": true,
      "emissiveFactor": [
        0,
        0,
        0
      ],
      "name": "material0002",
      "pbrMetallicRoughness": {
        "baseColorFactor": [
          1,
          1,
          1,
          1
        ],
        "baseColorTexture": {
          "index": 2,
          "texCoord": 0
        },
        "metallicFactor": 0,
        "roughnessFactor": 1
      }
    }
  ],
  "meshes": [
    {
      "primitives": [
        {
          "attributes": {
            "NORMAL": 1,
            "POSITION": 0,
            "TEXCOORD_0": 2
          },
          "indices": 3,
          "material": 0,
          "mode": 4
        }
      ]
    },
    {
      "primitives": [
        {
          "attributes": {
            "NORMAL": 5,
            "POSITION": 4,
            "TEXCOORD_0": 6
          },
          "indices": 7,
          "material": 0,
          "mode": 4
        }
      ]
    },
    {
      "primitives": [
        {
          "attributes": {
            "NORMAL": 9,
            "POSITION": 8,
            "TEXCOORD_0": 10
          },
          "indices": 11,
          "material": 0,
          "mode": 4
        }
      ]
    },
    {
      "primitives": [
        {
          "attributes": {
            "NORMAL": 13,
            "POSITION": 12,
            "TEXCOORD_0": 14
          },
          "indices": 15,
          "material": 1,
          "mode": 4
        }
      ]
    },
    {
      "primitives": [
        {
          "attributes": {
            "NORMAL": 17,
            "POSITION": 16,
            "TEXCOORD_0": 18
          },
          "indices": 19,
          "material": 2,
          "mode": 4
        }
      ]
    }
  ],
  "nodes": [
    {
      "children": [
        1
      ],
      "name": "RootNode (gltf orientation matrix)",
      "rotation": [
        -0.70710678118654746,
        -0,
        -0,
        0.70710678118654757
      ]
    },
    {
      "children": [
        2
      ],
      "matrix": [
        0.6827768087387085,
        -0.71922856569290161,
        -0.1285538375377655,
        0,
        0.0048497999086976051,
        0.18040761351585388,
        -0.98357999324798584,
        0,
        0.73061090707778931,
        0.67094218730926514,
        0.12666624784469604,
        0,
        0.60954403877258301,
        -296.33245849609375,
        -353.010009765625,
        1
      ],
      "name": "RootNode (model correction matrix)"
    },
    {
      "children": [
        3,
        4,
        5,
        6,
        7
      ],
      "name": "odm_textured_model.obj.cleaner.materialmerger.gles"
    },
    {
      "mesh": 0,
      "name": ""
    },
    {
      "mesh": 1,
      "name": ""
    },
    {
      "mesh": 2,
      "name": ""
    },
    {
      "mesh": 3,
      "name": ""
    },
    {
      "mesh": 4,
      "name": ""
    }
  ],
  "samplers": [
    {
      "magFilter": 9729,
      "minFilter": 9987,
      "wrapS": 10497,
      "wrapT": 10497
    }
  ],
  "scene": 0,
  "scenes": [
    {
      "name": "OSG_Scene",
      "nodes": [
        0
      ]
    }
  ],
  "textures": [
    {
      "sampler": 0,
      "source": 0
    },
    {
      "sampler": 0,
      "source": 1
    },
    {
      "sampler": 0,
      "source": 2
    }
  ]
}

